# xmcd
#
# Track frame offsets: 
#        150
#        14245
#        27365
#        46074
#        53855
#        68567
#        84136
#        92828
#        108947
#        124572
#        139956
#        155313
#        171068
#        186407
#        200569
#        217075
#        233457
#        250924
#        265466
#
# Disc length: 3732 seconds
#
# Revision: 0
# Processed by: cddbd v1.5.2PL0 Copyright (c) Steve Scherf et al.
# Submitted via: ExactAudioCopy v0.95b3
#
DISCID=070e9213
DTITLE=Jimi Hendrix  - Moonbeams and Fairytales - Disc 01
DYEAR=1900
DGENRE=
TTITLE0=Killing Floor
TTITLE1=Hey Joe
TTITLE2=Wild Thing
TTITLE3=Killing Floor
TTITLE4=Hey Joe
TTITLE5=Hey Joe
TTITLE6=Hey Joe
TTITLE7=Hey Joe
TTITLE8=Hey Joe
TTITLE9=Hey Joe
TTITLE10=Hey Joe
TTITLE11=Hey Joe
TTITLE12=Hey Joe
TTITLE13=Hey Joe
TTITLE14=Stone Free
TTITLE15=Stone Free
TTITLE16=Hey Joe
TTITLE17=Love or Confusion
TTITLE18=Love or Confusion
EXTD=
EXTT0=
EXTT1=
EXTT2=
EXTT3=
EXTT4=
EXTT5=
EXTT6=
EXTT7=
EXTT8=
EXTT9=
EXTT10=
EXTT11=
EXTT12=
EXTT13=
EXTT14=
EXTT15=
EXTT16=
EXTT17=
EXTT18=
PLAYORDER=
